<?xml version="1.0" encoding="UTF-8"?>
<!DOCTYPE svg PUBLIC "-//W3C//DTD SVG 1.1//EN" "http://www.w3.org/Graphics/SVG/1.1/DTD/svg11.dtd">
<svg xmlns="http://www.w3.org/2000/svg" version="1.1" width="2000px" height="2000px" viewBox="0 0 850 850" style="shape-rendering:geometricPrecision; text-rendering:geometricPrecision; image-rendering:optimizeQuality; fill-rule:evenodd; clip-rule:evenodd" xmlns:xlink="http://www.w3.org/1999/xlink">
<g><path style="opacity:0.112" fill="#f6fcf9" d="M 618.5,233.5 C 618.5,234.167 618.167,234.5 617.5,234.5C 616.357,231.736 615.023,229.069 613.5,226.5C 613.825,197.093 613.491,167.76 612.5,138.5C 469.334,137.334 326.001,137.167 182.5,138C 181.944,138.383 181.611,138.883 181.5,139.5C 180.508,139.328 179.842,139.662 179.5,140.5C 179.167,140.5 178.833,140.5 178.5,140.5C 178.511,138.983 179.177,137.816 180.5,137C 325.168,136.167 469.834,136.333 614.5,137.5C 615.892,169.425 617.226,201.425 618.5,233.5 Z"/></g>
<g><path style="opacity:0.549" fill="#bfead6" d="M 612.5,138.5 C 469.332,138.167 326.332,138.5 183.5,139.5C 182.833,139.5 182.167,139.5 181.5,139.5C 181.611,138.883 181.944,138.383 182.5,138C 326.001,137.167 469.334,137.334 612.5,138.5 Z"/></g>
<g><path style="opacity:1" fill="#18b36c" d="M 612.5,138.5 C 613.491,167.76 613.825,197.093 613.5,226.5C 610.87,221.258 607.703,216.258 604,211.5C 603.51,210.207 603.343,208.873 603.5,207.5C 599.456,209.917 596.79,213.583 595.5,218.5C 593.348,220.162 591.682,222.162 590.5,224.5C 590.667,204.831 590.5,185.164 590,165.5C 589.626,164.584 589.126,163.75 588.5,163C 460.167,162.5 331.834,162.333 203.5,162.5C 203.167,291.001 203.5,419.334 204.5,547.5C 204.611,548.117 204.944,548.617 205.5,549C 271.499,549.5 337.499,549.667 403.5,549.5C 399.656,557.199 395.322,564.532 390.5,571.5C 320.833,571.667 251.166,571.5 181.5,571C 181.485,505.393 181.485,439.726 181.5,374C 181.406,371.625 181.072,369.291 180.5,367C 180.164,365.97 179.497,365.47 178.5,365.5C 178.5,355.833 178.5,346.167 178.5,336.5C 179.404,335.791 179.737,334.791 179.5,333.5C 180.993,332.688 181.66,331.355 181.5,329.5C 180.511,266.516 180.178,203.516 180.5,140.5C 181.791,140.737 182.791,140.404 183.5,139.5C 326.332,138.5 469.332,138.167 612.5,138.5 Z"/></g>
<g><path style="opacity:0.345" fill="#e5f6ee" d="M 590.5,224.5 C 590.795,226.735 590.461,228.735 589.5,230.5C 589.5,225.833 589.5,221.167 589.5,216.5C 589.5,205.5 589.5,194.5 589.5,183.5C 589.5,179.5 589.5,175.5 589.5,171.5C 589.577,168.491 588.244,166.324 585.5,165C 460.85,164.509 336.35,164.342 212,164.5C 209.855,164.396 208.021,165.063 206.5,166.5C 205.167,292.833 205.167,419.167 206.5,545.5C 207.308,545.808 207.975,546.308 208.5,547C 273.832,547.5 339.166,547.667 404.5,547.5C 404.5,547.833 404.5,548.167 404.5,548.5C 337.792,548.826 271.125,548.493 204.5,547.5C 203.5,419.334 203.167,291.001 203.5,162.5C 331.834,162.333 460.167,162.5 588.5,163C 589.126,163.75 589.626,164.584 590,165.5C 590.5,185.164 590.667,204.831 590.5,224.5 Z"/></g>
<g><path style="opacity:0.019" fill="#fefffe" d="M 589.5,171.5 C 589.5,175.5 589.5,179.5 589.5,183.5C 588.003,181.71 587.336,179.544 587.5,177C 587.667,175.5 587.833,174 588,172.5C 588.383,171.944 588.883,171.611 589.5,171.5 Z"/></g>
<g><path style="opacity:0.927" fill="#44c288" d="M 181.5,139.5 C 182.167,139.5 182.833,139.5 183.5,139.5C 182.791,140.404 181.791,140.737 180.5,140.5C 180.178,203.516 180.511,266.516 181.5,329.5C 181.66,331.355 180.993,332.688 179.5,333.5C 179.5,269.167 179.5,204.833 179.5,140.5C 179.842,139.662 180.508,139.328 181.5,139.5 Z"/></g>
<g><path style="opacity:1" fill="#80d85a" d="M 613.5,226.5 C 615.023,229.069 616.357,231.736 617.5,234.5C 698.935,375.713 780.602,516.713 862.5,657.5C 862.5,658.167 862.5,658.833 862.5,659.5C 776.336,660.833 689.836,661.5 603,661.5C 516.164,661.5 429.664,660.833 343.5,659.5C 343.343,658.127 343.51,656.793 344,655.5C 346.231,652.737 348.064,649.737 349.5,646.5C 358.527,631.805 367.194,616.805 375.5,601.5C 380.144,593.554 384.811,585.554 389.5,577.5C 390.451,576.081 390.784,574.415 390.5,572.5C 390.5,572.167 390.5,571.833 390.5,571.5C 395.322,564.532 399.656,557.199 403.5,549.5C 404.167,549.5 404.5,549.167 404.5,548.5C 406.017,548.489 407.184,547.823 408,546.5C 433.142,502.095 458.475,457.762 484,413.5C 485.231,412.892 486.564,412.559 488,412.5C 493.215,414.857 498.381,417.357 503.5,420C 504.804,420.804 505.471,421.971 505.5,423.5C 481.285,464.607 457.618,505.94 434.5,547.5C 428.76,555.3 423.76,563.634 419.5,572.5C 411.139,587.184 402.805,601.85 394.5,616.5C 392.076,619.008 390.41,622.008 389.5,625.5C 387.412,627.336 386.079,629.669 385.5,632.5C 381.256,635.417 381.59,637.417 386.5,638.5C 458.666,639.167 530.999,639.5 603.5,639.5C 676.17,639.5 748.503,638.833 820.5,637.5C 820.662,635.473 820.495,633.473 820,631.5C 815.423,624.218 810.923,616.885 806.5,609.5C 806.715,607.821 806.048,606.821 804.5,606.5C 797.38,593.309 790.047,580.142 782.5,567C 781.87,565.69 780.87,564.856 779.5,564.5C 773.589,551.774 766.922,539.441 759.5,527.5C 759.068,526.29 758.401,525.29 757.5,524.5C 706.749,437.414 656.416,350.08 606.5,262.5C 604.833,261.167 603.167,259.833 601.5,258.5C 595.068,267.693 589.402,277.36 584.5,287.5C 583.094,287.973 582.427,288.973 582.5,290.5C 575.078,301.67 568.411,313.337 562.5,325.5C 561.094,325.973 560.427,326.973 560.5,328.5C 553.317,342.04 545.65,355.373 537.5,368.5C 531.221,362.887 525.221,356.887 519.5,350.5C 520.822,350.67 521.989,350.337 523,349.5C 525.928,342.401 529.095,335.401 532.5,328.5C 533.87,328.144 534.87,327.31 535.5,326C 536.637,322.714 537.97,319.548 539.5,316.5C 542.249,314.003 544.249,311.003 545.5,307.5C 547.89,305.763 549.557,303.429 550.5,300.5C 550.629,298.784 550.962,297.117 551.5,295.5C 554.572,291.976 556.905,287.976 558.5,283.5C 560.896,280.77 562.896,277.77 564.5,274.5C 567.068,272.973 568.401,270.639 568.5,267.5C 569.537,266.07 570.204,264.403 570.5,262.5C 576.014,256.817 580.014,250.15 582.5,242.5C 583.15,242.196 583.817,241.863 584.5,241.5C 585.677,237.576 587.344,233.91 589.5,230.5C 590.461,228.735 590.795,226.735 590.5,224.5C 591.682,222.162 593.348,220.162 595.5,218.5C 596.79,213.583 599.456,209.917 603.5,207.5C 603.343,208.873 603.51,210.207 604,211.5C 607.703,216.258 610.87,221.258 613.5,226.5 Z"/></g>
<g><path style="opacity:0.035" fill="#f9fdf7" d="M 589.5,216.5 C 589.5,221.167 589.5,225.833 589.5,230.5C 587.344,233.91 585.677,237.576 584.5,241.5C 583.817,241.863 583.15,242.196 582.5,242.5C 583.15,238.86 584.65,235.527 587,232.5C 587.333,227.5 587.667,222.5 588,217.5C 588.383,216.944 588.883,216.611 589.5,216.5 Z"/></g>
<g><path style="opacity:0.068" fill="#f1faec" d="M 582.5,242.5 C 580.014,250.15 576.014,256.817 570.5,262.5C 573.259,257.147 575.925,251.647 578.5,246C 579.41,244.251 580.743,243.084 582.5,242.5 Z"/></g>
<g><path style="opacity:0.089" fill="#f6fcf4" d="M 570.5,262.5 C 570.204,264.403 569.537,266.07 568.5,267.5C 566.878,269.606 565.545,271.939 564.5,274.5C 562.896,277.77 560.896,280.77 558.5,283.5C 560.364,278.768 562.531,274.101 565,269.5C 566.759,266.931 568.593,264.597 570.5,262.5 Z"/></g>
<g><path style="opacity:0.867" fill="#b1e798" d="M 568.5,267.5 C 568.401,270.639 567.068,272.973 564.5,274.5C 565.545,271.939 566.878,269.606 568.5,267.5 Z"/></g>
<g><path style="opacity:1" fill="#237b53" d="M 392.5,289.5 C 397.259,291.334 402.259,292.668 407.5,293.5C 438.606,301.382 467.606,314.215 494.5,332C 502.893,338.185 511.226,344.352 519.5,350.5C 525.221,356.887 531.221,362.887 537.5,368.5C 537.5,369.167 537.833,369.5 538.5,369.5C 553.684,386.191 567.184,404.191 579,423.5C 581.764,428.695 584.264,434.028 586.5,439.5C 586.461,440.756 586.961,441.756 588,442.5C 588.5,468.831 588.667,495.165 588.5,521.5C 587.833,518.167 587.167,514.833 586.5,511.5C 563.825,415.806 505.825,351.639 412.5,319C 371.52,306.509 329.853,304.342 287.5,312.5C 285.102,312.259 283.102,312.926 281.5,314.5C 277.447,315.013 273.447,315.846 269.5,317C 257.542,320.706 245.875,324.872 234.5,329.5C 234.334,321.493 234.5,313.493 235,305.5C 236.167,304.333 237.333,303.167 238.5,302C 252.347,298.118 266.014,294.285 279.5,290.5C 286.064,289.508 292.73,288.675 299.5,288C 300.056,287.617 300.389,287.117 300.5,286.5C 331.449,283.289 362.116,284.289 392.5,289.5 Z"/></g>
<g><path style="opacity:0.069" fill="#f7fcf4" d="M 558.5,283.5 C 556.905,287.976 554.572,291.976 551.5,295.5C 552.243,290.456 554.577,286.456 558.5,283.5 Z"/></g>
<g><path style="opacity:0.996" fill="#bbe9a6" d="M 584.5,287.5 C 584.573,289.027 583.906,290.027 582.5,290.5C 582.427,288.973 583.094,287.973 584.5,287.5 Z"/></g>
<g><path style="opacity:0.863" fill="#b2e79a" d="M 550.5,300.5 C 549.557,303.429 547.89,305.763 545.5,307.5C 546.459,304.557 548.125,302.224 550.5,300.5 Z"/></g>
<g><path style="opacity:0.083" fill="#f4fbf0" d="M 551.5,295.5 C 550.962,297.117 550.629,298.784 550.5,300.5C 548.125,302.224 546.459,304.557 545.5,307.5C 544.249,311.003 542.249,314.003 539.5,316.5C 541.698,311.101 544.198,305.767 547,300.5C 548.524,298.729 550.024,297.062 551.5,295.5 Z"/></g>
<g><path style="opacity:0.267" fill="#edf4f1" d="M 532.5,328.5 C 529.095,335.401 525.928,342.401 523,349.5C 521.989,350.337 520.822,350.67 519.5,350.5C 511.226,344.352 502.893,338.185 494.5,332C 467.606,314.215 438.606,301.382 407.5,293.5C 407.389,292.883 407.056,292.383 406.5,292C 401.873,290.843 397.207,290.01 392.5,289.5C 362.116,284.289 331.449,283.289 300.5,286.5C 293.278,287.267 286.278,288.6 279.5,290.5C 266.014,294.285 252.347,298.118 238.5,302C 237.333,303.167 236.167,304.333 235,305.5C 234.5,313.493 234.334,321.493 234.5,329.5C 245.875,324.872 257.542,320.706 269.5,317C 273.447,315.846 277.447,315.013 281.5,314.5C 283.898,314.741 285.898,314.074 287.5,312.5C 329.853,304.342 371.52,306.509 412.5,319C 505.825,351.639 563.825,415.806 586.5,511.5C 586.335,515.182 586.501,518.848 587,522.5C 587.383,523.056 587.883,523.389 588.5,523.5C 588.335,526.85 588.502,530.183 589,533.5C 589.232,534.737 589.732,535.737 590.5,536.5C 590.665,539.85 590.498,543.183 590,546.5C 589.5,547 589,547.5 588.5,548C 538.834,548.5 489.168,548.667 439.5,548.5C 439.167,547.833 438.833,547.167 438.5,546.5C 487.792,547.657 537.126,547.824 586.5,547C 587.696,545.636 588.696,544.136 589.5,542.5C 577.199,445.068 527.199,374.735 439.5,331.5C 391.38,310.949 341.38,305.449 289.5,315C 283.856,316.922 278.022,318.422 272,319.5C 266.415,322.139 260.582,323.973 254.5,325C 248.757,327.998 242.924,330.831 237,333.5C 236.05,332.978 235.216,332.311 234.5,331.5C 233.167,321.833 233.167,312.167 234.5,302.5C 271.243,287.938 309.577,281.105 349.5,282C 364.118,283.662 378.784,285.329 393.5,287C 441.295,297.149 483.461,317.982 520,349.5C 523.18,341.791 527.346,334.791 532.5,328.5 Z"/></g>
<g><path style="opacity:0.918" fill="#5b9b7e" d="M 392.5,289.5 C 397.207,290.01 401.873,290.843 406.5,292C 407.056,292.383 407.389,292.883 407.5,293.5C 402.259,292.668 397.259,291.334 392.5,289.5 Z"/></g>
<g><path style="opacity:0.906" fill="#82b39d" d="M 300.5,286.5 C 300.389,287.117 300.056,287.617 299.5,288C 292.73,288.675 286.064,289.508 279.5,290.5C 286.278,288.6 293.278,287.267 300.5,286.5 Z"/></g>
<g><path style="opacity:0.878" fill="#a0c6b5" d="M 287.5,312.5 C 285.898,314.074 283.898,314.741 281.5,314.5C 283.102,312.926 285.102,312.259 287.5,312.5 Z"/></g>
<g><path style="opacity:1" fill="#18b36c" d="M 612.5,316.5 C 612.5,316.833 612.5,317.167 612.5,317.5C 612.5,402.167 612.5,486.833 612.5,571.5C 548.664,571.168 484.998,571.501 421.5,572.5C 420.833,572.5 420.167,572.5 419.5,572.5C 423.76,563.634 428.76,555.3 434.5,547.5C 436.216,547.629 437.883,547.962 439.5,548.5C 489.168,548.667 538.834,548.5 588.5,548C 589,547.5 589.5,547 590,546.5C 590.498,543.183 590.665,539.85 590.5,536.5C 589.181,503.481 589.181,470.481 590.5,437.5C 590.5,397.5 590.5,357.5 590.5,317.5C 597.777,316.57 605.11,316.236 612.5,316.5 Z"/></g>
<g><path style="opacity:1" fill="#43c188" d="M 612.5,317.5 C 613.499,401.665 613.833,485.998 613.5,570.5C 549.842,572.496 485.842,573.163 421.5,572.5C 484.998,571.501 548.664,571.168 612.5,571.5C 612.5,486.833 612.5,402.167 612.5,317.5 Z"/></g>
<g><path style="opacity:0.067" fill="#f3fbef" d="M 539.5,316.5 C 537.97,319.548 536.637,322.714 535.5,326C 534.87,327.31 533.87,328.144 532.5,328.5C 532.421,327.07 532.754,325.736 533.5,324.5C 535.051,321.353 537.051,318.687 539.5,316.5 Z"/></g>
<g><path style="opacity:0.996" fill="#bbeaa6" d="M 562.5,325.5 C 562.573,327.027 561.906,328.027 560.5,328.5C 560.427,326.973 561.094,325.973 562.5,325.5 Z"/></g>
<g><path style="opacity:0.012" fill="#fefffe" d="M 589.5,331.5 C 589.5,354.5 589.5,377.5 589.5,400.5C 588.168,389.52 587.501,378.187 587.5,366.5C 587.667,355.167 587.833,343.833 588,332.5C 588.383,331.944 588.883,331.611 589.5,331.5 Z"/></g>
<g><path style="opacity:1" fill="#237b53" d="M 178.5,336.5 C 178.5,346.167 178.5,355.833 178.5,365.5C 178.5,365.833 178.5,366.167 178.5,366.5C 176.745,367.072 175.078,367.906 173.5,369C 142.247,396.674 118.747,429.84 103,468.5C 100.853,475.061 99.0197,481.728 97.5,488.5C 95.3186,493.566 93.6519,498.899 92.5,504.5C 91.087,507.219 90.4203,510.219 90.5,513.5C 90.5,514.167 90.5,514.833 90.5,515.5C 88.5849,521.899 87.5849,528.565 87.5,535.5C 86.6423,543.132 86.3089,550.799 86.5,558.5C 79.1667,558.5 71.8333,558.5 64.5,558.5C 64.5,549.5 64.5,540.5 64.5,531.5C 66.1571,514.747 69.1571,498.247 73.5,482C 78.4841,466.872 84.1508,452.039 90.5,437.5C 111.921,397.07 141.255,363.403 178.5,336.5 Z"/></g>
<g><path style="opacity:0.846" fill="#b9e8d3" d="M 612.5,317.5 C 612.5,317.167 612.5,316.833 612.5,316.5C 613.833,358.495 614.5,400.828 614.5,443.5C 614.5,486.001 614.167,528.335 613.5,570.5C 613.833,485.998 613.499,401.665 612.5,317.5 Z"/></g>
<g><path style="opacity:0.077" fill="#eaf4ef" d="M 178.5,140.5 C 178.833,140.5 179.167,140.5 179.5,140.5C 179.5,204.833 179.5,269.167 179.5,333.5C 179.737,334.791 179.404,335.791 178.5,336.5C 141.255,363.403 111.921,397.07 90.5,437.5C 90.4332,435.599 90.7665,433.766 91.5,432C 101.251,414.455 112.418,397.955 125,382.5C 132.069,373.426 139.902,364.926 148.5,357C 157.346,350.211 166.346,343.544 175.5,337C 176.071,335.795 176.738,334.628 177.5,333.5C 178.5,269.17 178.833,204.837 178.5,140.5 Z"/></g>
<g><path style="opacity:0.092" fill="#e4f3ec" d="M 590.5,317.5 C 590.5,357.5 590.5,397.5 590.5,437.5C 589.21,438.058 588.377,439.058 588,440.5C 587.617,439.944 587.117,439.611 586.5,439.5C 584.264,434.028 581.764,428.695 579,423.5C 567.184,404.191 553.684,386.191 538.5,369.5C 538.427,367.973 539.094,366.973 540.5,366.5C 544.379,374.217 549.712,380.883 556.5,386.5C 561.167,392.845 565.834,399.178 570.5,405.5C 575.932,413.36 580.599,421.693 584.5,430.5C 585.853,431.685 587.02,433.019 588,434.5C 589.375,432.063 589.875,429.397 589.5,426.5C 589.5,421.167 589.5,415.833 589.5,410.5C 589.5,407.167 589.5,403.833 589.5,400.5C 589.5,377.5 589.5,354.5 589.5,331.5C 589.5,329.167 589.5,326.833 589.5,324.5C 589.198,321.941 589.532,319.607 590.5,317.5 Z"/></g>
<g><path style="opacity:0.115" fill="#f2fbed" d="M 757.5,524.5 C 757.285,526.179 757.952,527.179 759.5,527.5C 766.922,539.441 773.589,551.774 779.5,564.5C 777.983,564.489 776.816,563.823 776,562.5C 723.396,470.035 670.063,377.701 616,285.5C 612.018,277.799 608.185,270.132 604.5,262.5C 603.5,262.5 602.5,262.5 601.5,262.5C 601.649,263.552 601.483,264.552 601,265.5C 581.932,298.02 563.099,330.686 544.5,363.5C 543.412,364.934 542.078,365.934 540.5,366.5C 539.094,366.973 538.427,367.973 538.5,369.5C 537.833,369.5 537.5,369.167 537.5,368.5C 545.65,355.373 553.317,342.04 560.5,328.5C 561.906,328.027 562.573,327.027 562.5,325.5C 568.411,313.337 575.078,301.67 582.5,290.5C 583.906,290.027 584.573,289.027 584.5,287.5C 589.402,277.36 595.068,267.693 601.5,258.5C 603.167,259.833 604.833,261.167 606.5,262.5C 656.416,350.08 706.749,437.414 757.5,524.5 Z"/></g>
<g><path style="opacity:0.217" fill="#e6f2ec" d="M 178.5,366.5 C 179.615,368.307 180.281,370.307 180.5,372.5C 179.51,438.817 179.177,505.151 179.5,571.5C 179.167,571.5 178.833,571.5 178.5,571.5C 178.5,504.833 178.5,438.167 178.5,371.5C 177.022,371.238 175.689,371.571 174.5,372.5C 161.072,385.389 148.572,399.055 137,413.5C 121.164,437.111 108.331,462.111 98.5,488.5C 98.1667,488.5 97.8333,488.5 97.5,488.5C 99.0197,481.728 100.853,475.061 103,468.5C 118.747,429.84 142.247,396.674 173.5,369C 175.078,367.906 176.745,367.072 178.5,366.5 Z"/></g>
<g><path style="opacity:0.032" fill="#fefffe" d="M 589.5,410.5 C 589.5,415.833 589.5,421.167 589.5,426.5C 588.191,424.429 587.525,421.929 587.5,419C 587.667,416.5 587.833,414 588,411.5C 588.383,410.944 588.883,410.611 589.5,410.5 Z"/></g>
<g><path style="opacity:0.28" fill="#f1faec" d="M 438.5,546.5 C 438.833,547.167 439.167,547.833 439.5,548.5C 437.883,547.962 436.216,547.629 434.5,547.5C 457.618,505.94 481.285,464.607 505.5,423.5C 505.471,421.971 504.804,420.804 503.5,420C 498.381,417.357 493.215,414.857 488,412.5C 486.564,412.559 485.231,412.892 484,413.5C 458.475,457.762 433.142,502.095 408,546.5C 407.184,547.823 406.017,548.489 404.5,548.5C 404.5,548.167 404.5,547.833 404.5,547.5C 430.605,502.792 456.772,457.792 483,412.5C 484.586,411.624 486.086,410.624 487.5,409.5C 494.343,412.171 500.843,415.505 507,419.5C 507.717,423.045 507.55,426.545 506.5,430C 483.29,468.638 460.623,507.471 438.5,546.5 Z"/></g>
<g><path style="opacity:0.134" fill="#f7fcf4" d="M 618.5,233.5 C 624.048,239.566 628.382,246.566 631.5,254.5C 705.133,380.518 777.966,506.851 850,633.5C 850.689,634.357 851.522,635.023 852.5,635.5C 855.255,642.008 858.255,648.341 861.5,654.5C 862.11,655.391 862.443,656.391 862.5,657.5C 780.602,516.713 698.935,375.713 617.5,234.5C 618.167,234.5 618.5,234.167 618.5,233.5 Z"/></g>
<g><path style="opacity:1" fill="#25a669" d="M 590.5,437.5 C 589.181,470.481 589.181,503.481 590.5,536.5C 589.732,535.737 589.232,534.737 589,533.5C 588.502,530.183 588.335,526.85 588.5,523.5C 588.5,522.833 588.5,522.167 588.5,521.5C 588.667,495.165 588.5,468.831 588,442.5C 586.961,441.756 586.461,440.756 586.5,439.5C 587.117,439.611 587.617,439.944 588,440.5C 588.377,439.058 589.21,438.058 590.5,437.5 Z"/></g>
<g><path style="opacity:0.956" fill="#3bbf82" d="M 178.5,365.5 C 179.497,365.47 180.164,365.97 180.5,367C 181.072,369.291 181.406,371.625 181.5,374C 181.485,439.726 181.485,505.393 181.5,571C 251.166,571.5 320.833,571.667 390.5,571.5C 390.5,571.833 390.5,572.167 390.5,572.5C 320.5,572.5 250.5,572.5 180.5,572.5C 179.833,572.5 179.5,572.167 179.5,571.5C 179.177,505.151 179.51,438.817 180.5,372.5C 180.281,370.307 179.615,368.307 178.5,366.5C 178.5,366.167 178.5,365.833 178.5,365.5 Z"/></g>
<g><path style="opacity:0.219" fill="#f0f6f4" d="M 90.5,437.5 C 84.1508,452.039 78.4841,466.872 73.5,482C 69.1571,498.247 66.1571,514.747 64.5,531.5C 63.3428,540.329 62.8428,549.329 63,558.5C 70.9317,559.827 78.7651,559.827 86.5,558.5C 86.3089,550.799 86.6423,543.132 87.5,535.5C 89.2457,529.074 90.2457,522.407 90.5,515.5C 90.5,514.833 90.5,514.167 90.5,513.5C 91.1174,513.389 91.6174,513.056 92,512.5C 92.4974,509.854 92.6641,507.187 92.5,504.5C 93.6519,498.899 95.3186,493.566 97.5,488.5C 97.8333,488.5 98.1667,488.5 98.5,488.5C 96.4554,500.839 94.122,513.172 91.5,525.5C 90.8209,536.157 90.3209,546.824 90,557.5C 88.8118,558.563 88.3118,559.897 88.5,561.5C 79.8078,561.831 71.1411,561.498 62.5,560.5C 61.2681,557.7 60.6015,554.7 60.5,551.5C 62.1327,512.637 71.1327,475.637 87.5,440.5C 88.1411,439.007 89.1411,438.007 90.5,437.5 Z"/></g>
<g><path style="opacity:0.902" fill="#a2c7b6" d="M 92.5,504.5 C 92.6641,507.187 92.4974,509.854 92,512.5C 91.6174,513.056 91.1174,513.389 90.5,513.5C 90.4203,510.219 91.087,507.219 92.5,504.5 Z"/></g>
<g><path style="opacity:0.753" fill="#8abaa4" d="M 586.5,511.5 C 587.167,514.833 587.833,518.167 588.5,521.5C 588.5,522.167 588.5,522.833 588.5,523.5C 587.883,523.389 587.383,523.056 587,522.5C 586.501,518.848 586.335,515.182 586.5,511.5 Z"/></g>
<g><path style="opacity:0.996" fill="#9ac2b0" d="M 90.5,515.5 C 90.2457,522.407 89.2457,529.074 87.5,535.5C 87.5849,528.565 88.5849,521.899 90.5,515.5 Z"/></g>
<g><path style="opacity:0.765" fill="#baeaa5" d="M 757.5,524.5 C 758.401,525.29 759.068,526.29 759.5,527.5C 757.952,527.179 757.285,526.179 757.5,524.5 Z"/></g>
<g><path style="opacity:0.76" fill="#7ad4ab" d="M 204.5,547.5 C 271.125,548.493 337.792,548.826 404.5,548.5C 404.5,549.167 404.167,549.5 403.5,549.5C 337.499,549.667 271.499,549.5 205.5,549C 204.944,548.617 204.611,548.117 204.5,547.5 Z"/></g>
<g><path style="opacity:0.966" fill="#5c9c7f" d="M 64.5,531.5 C 64.5,540.5 64.5,549.5 64.5,558.5C 71.8333,558.5 79.1667,558.5 86.5,558.5C 78.7651,559.827 70.9317,559.827 63,558.5C 62.8428,549.329 63.3428,540.329 64.5,531.5 Z"/></g>
<g><path style="opacity:0.323" fill="#fcfdfc" d="M 178.5,571.5 C 178.833,571.5 179.167,571.5 179.5,571.5C 179.5,572.167 179.833,572.5 180.5,572.5C 249.998,573.499 319.665,573.833 389.5,573.5C 389.5,574.833 389.5,576.167 389.5,577.5C 384.811,585.554 380.144,593.554 375.5,601.5C 375.433,599.599 375.767,597.766 376.5,596C 380.583,589.33 384.25,582.496 387.5,575.5C 318.166,575.667 248.833,575.5 179.5,575C 178.663,573.989 178.33,572.822 178.5,571.5 Z"/></g>
<g><path style="opacity:0.811" fill="#c9eddc" d="M 180.5,572.5 C 250.5,572.5 320.5,572.5 390.5,572.5C 390.784,574.415 390.451,576.081 389.5,577.5C 389.5,576.167 389.5,574.833 389.5,573.5C 319.665,573.833 249.998,573.499 180.5,572.5 Z"/></g>
<g><path style="opacity:0.174" fill="#f5faf0" d="M 72.5,597.5 C 101.324,596.853 129.991,597.519 158.5,599.5C 159.665,607.813 159.832,616.147 159,624.5C 157.014,626.742 154.514,627.742 151.5,627.5C 145.995,626.87 140.495,626.203 135,625.5C 125.143,628.071 115.31,628.071 105.5,625.5C 104.353,625.818 103.519,626.484 103,627.5C 102.204,631.755 102.371,635.921 103.5,640C 116.689,640.788 129.856,640.621 143,639.5C 144.895,639.615 146.562,640.282 148,641.5C 148.832,650.518 148.665,659.518 147.5,668.5C 142.922,671.021 138.255,671.021 133.5,668.5C 123.479,669.296 113.479,669.629 103.5,669.5C 102.376,675.448 102.21,681.448 103,687.5C 121.267,689.314 139.767,690.148 158.5,690C 159.815,698.441 159.815,706.941 158.5,715.5C 129.637,716.83 100.804,716.83 72,715.5C 71.1787,676.125 71.3453,636.792 72.5,597.5 Z"/></g>
<g><path style="opacity:0.251" fill="#f5faee" d="M 195.5,597.5 C 205.692,596.893 215.692,597.559 225.5,599.5C 232.579,617.794 238.745,636.461 244,655.5C 246.263,659.63 248.097,663.963 249.5,668.5C 257.585,645.07 265.918,621.736 274.5,598.5C 284.394,597.182 294.227,597.182 304,598.5C 304.667,601.5 304.667,604.5 304,607.5C 302.602,609.518 301.435,611.684 300.5,614C 289.063,647.924 277.397,681.757 265.5,715.5C 255.547,716.641 245.547,716.808 235.5,716C 234.354,715.355 233.354,714.522 232.5,713.5C 222.485,685.288 212.985,656.955 204,628.5C 200.34,619.844 196.84,611.011 193.5,602C 193.519,600.167 194.185,598.667 195.5,597.5 Z"/></g>
<g><path style="opacity:0.679" fill="#d7f1b2" d="M 154.5,599.5 C 127.789,599.184 101.122,599.518 74.5,600.5C 74.6107,599.883 74.944,599.383 75.5,599C 102.003,598.17 128.337,598.337 154.5,599.5 Z"/></g>
<g><path style="opacity:0.681" fill="#d5f0af" d="M 299.5,599.5 C 291.778,599.233 284.111,599.566 276.5,600.5C 276.611,599.883 276.944,599.383 277.5,599C 285.012,598.178 292.345,598.345 299.5,599.5 Z"/></g>
<g><path style="opacity:0.969" fill="#c9ea99" d="M 224.5,602.5 C 225.924,604.515 226.59,606.848 226.5,609.5C 225.076,607.485 224.41,605.152 224.5,602.5 Z"/></g>
<g><path style="opacity:1" fill="#9ad746" d="M 154.5,599.5 C 154.5,600.167 154.833,600.5 155.5,600.5C 155.5,607.833 155.5,615.167 155.5,622.5C 136.659,622.17 117.993,622.503 99.5,623.5C 99.1667,623.5 98.8333,623.5 98.5,623.5C 97.6862,625.631 97.1862,627.964 97,630.5C 96.3261,629.422 95.3261,628.755 94,628.5C 87.5113,628.774 81.0113,628.774 74.5,628.5C 74.5,619.167 74.5,609.833 74.5,600.5C 101.122,599.518 127.789,599.184 154.5,599.5 Z"/></g>
<g><path style="opacity:1" fill="#9ad748" d="M 224.5,602.5 C 224.41,605.152 225.076,607.485 226.5,609.5C 228.12,612.228 229.12,615.228 229.5,618.5C 230.159,623.287 230.993,627.954 232,632.5C 223.796,632.438 215.63,632.105 207.5,631.5C 202.91,621.134 199.243,610.467 196.5,599.5C 205.173,599.334 213.84,599.5 222.5,600C 223.381,600.708 224.047,601.542 224.5,602.5 Z"/></g>
<g><path style="opacity:1" fill="#9ad749" d="M 299.5,599.5 C 301.847,600.607 302.18,602.274 300.5,604.5C 299.076,606.515 298.41,608.848 298.5,611.5C 295.97,617.756 293.637,624.09 291.5,630.5C 290.448,629.47 289.114,628.803 287.5,628.5C 280.514,628.829 273.514,628.829 266.5,628.5C 267.11,627.609 267.443,626.609 267.5,625.5C 269.83,618.727 271.663,611.727 273,604.5C 273.74,602.681 274.907,601.348 276.5,600.5C 284.111,599.566 291.778,599.233 299.5,599.5 Z"/></g>
<g><path style="opacity:0.996" fill="#d0eda8" d="M 300.5,604.5 C 300.59,607.152 299.924,609.485 298.5,611.5C 298.41,608.848 299.076,606.515 300.5,604.5 Z"/></g>
<g><path style="opacity:0.663" fill="#bdeaaa" d="M 804.5,606.5 C 806.048,606.821 806.715,607.821 806.5,609.5C 805.599,608.71 804.932,607.71 804.5,606.5 Z"/></g>
<g><path style="opacity:0.119" fill="#f7fcf8" d="M 811.5,637.5 C 810.5,637.5 809.5,637.5 808.5,637.5C 807.833,637.5 807.167,637.5 806.5,637.5C 803.686,636.835 800.686,636.502 797.5,636.5C 663.005,637.151 528.671,637.818 394.5,638.5C 391.833,638.5 389.167,638.5 386.5,638.5C 385.859,637.518 385.193,636.518 384.5,635.5C 385.127,634.583 385.461,633.583 385.5,632.5C 386.079,629.669 387.412,627.336 389.5,625.5C 392.415,623.349 394.082,620.349 394.5,616.5C 402.805,601.85 411.139,587.184 419.5,572.5C 420.167,572.5 420.833,572.5 421.5,572.5C 485.842,573.163 549.842,572.496 613.5,570.5C 614.167,528.335 614.5,486.001 614.5,443.5C 614.5,400.828 613.833,358.495 612.5,316.5C 605.679,315.345 598.679,315.179 591.5,316C 590.944,316.383 590.611,316.883 590.5,317.5C 589.532,319.607 589.198,321.941 589.5,324.5C 588.252,323.666 587.585,322.333 587.5,320.5C 587.716,318.616 588.383,316.949 589.5,315.5C 597.813,314.335 606.147,314.168 614.5,315C 615,315.5 615.5,316 616,316.5C 616.833,402.169 616.667,487.835 615.5,573.5C 550.976,575.159 486.31,576.159 421.5,576.5C 410.186,595.821 398.852,615.155 387.5,634.5C 388.328,635.415 389.328,636.081 390.5,636.5C 460.793,635.835 531.127,635.502 601.5,635.5C 671.837,635.5 741.837,636.167 811.5,637.5 Z"/></g>
<g><path style="opacity:0.795" fill="#75d2a8" d="M 612.5,316.5 C 605.11,316.236 597.777,316.57 590.5,317.5C 590.611,316.883 590.944,316.383 591.5,316C 598.679,315.179 605.679,315.345 612.5,316.5 Z"/></g>
<g><path style="opacity:0.061" fill="#f6fcf3" d="M 375.5,601.5 C 367.194,616.805 358.527,631.805 349.5,646.5C 349.433,644.599 349.767,642.766 350.5,641C 352.352,638.981 354.019,636.814 355.5,634.5C 357.433,629.467 359.767,624.633 362.5,620C 366.666,615 369.999,609.5 372.5,603.5C 373.265,602.388 374.265,601.721 375.5,601.5 Z"/></g>
<g><path style="opacity:0.083" fill="#f0faec" d="M 779.5,564.5 C 780.87,564.856 781.87,565.69 782.5,567C 790.047,580.142 797.38,593.309 804.5,606.5C 804.932,607.71 805.599,608.71 806.5,609.5C 810.923,616.885 815.423,624.218 820,631.5C 820.495,633.473 820.662,635.473 820.5,637.5C 816.399,638.791 812.399,638.791 808.5,637.5C 809.5,637.5 810.5,637.5 811.5,637.5C 813.604,637.799 815.604,637.466 817.5,636.5C 818.428,635.232 818.595,633.899 818,632.5C 815.607,630.11 813.607,627.443 812,624.5C 802.522,606.019 792.188,588.019 781,570.5C 779.872,568.655 779.372,566.655 779.5,564.5 Z"/></g>
<g><path style="opacity:0.996" fill="#b1df77" d="M 155.5,600.5 C 156.492,607.982 156.825,615.648 156.5,623.5C 137.5,623.5 118.5,623.5 99.5,623.5C 117.993,622.503 136.659,622.17 155.5,622.5C 155.5,615.167 155.5,607.833 155.5,600.5 Z"/></g>
<g><path style="opacity:0.78" fill="#e0f5d6" d="M 394.5,616.5 C 394.082,620.349 392.415,623.349 389.5,625.5C 390.41,622.008 392.076,619.008 394.5,616.5 Z"/></g>
<g><path style="opacity:0.98" fill="#abda71" d="M 267.5,625.5 C 267.443,626.609 267.11,627.609 266.5,628.5C 265.944,631.937 264.611,634.937 262.5,637.5C 263.359,633.036 265.026,629.036 267.5,625.5 Z"/></g>
<g><path style="opacity:1" fill="#8bcc40" d="M 266.5,628.5 C 273.514,628.829 280.514,628.829 287.5,628.5C 289.114,628.803 290.448,629.47 291.5,630.5C 291.167,631.833 290.833,633.167 290.5,634.5C 289.069,635.78 288.402,637.447 288.5,639.5C 286.661,641.511 285.161,643.844 284,646.5C 276.83,645.275 269.663,645.275 262.5,646.5C 261.481,644.54 261.481,642.54 262.5,640.5C 262.5,639.5 262.5,638.5 262.5,637.5C 264.611,634.937 265.944,631.937 266.5,628.5 Z"/></g>
<g><path style="opacity:1" fill="#ade694" d="M 385.5,632.5 C 385.461,633.583 385.127,634.583 384.5,635.5C 385.193,636.518 385.859,637.518 386.5,638.5C 381.59,637.417 381.256,635.417 385.5,632.5 Z"/></g>
<g><path style="opacity:0.855" fill="#d4ebb8" d="M 290.5,634.5 C 290.741,636.898 290.074,638.898 288.5,640.5C 288.5,640.167 288.5,639.833 288.5,639.5C 288.402,637.447 289.069,635.78 290.5,634.5 Z"/></g>
<g><path style="opacity:0.49" fill="#dff5d5" d="M 806.5,637.5 C 669.173,638.471 531.839,638.805 394.5,638.5C 528.671,637.818 663.005,637.151 797.5,636.5C 800.686,636.502 803.686,636.835 806.5,637.5 Z"/></g>
<g><path style="opacity:0.919" fill="#92de71" d="M 806.5,637.5 C 807.167,637.5 807.833,637.5 808.5,637.5C 812.399,638.791 816.399,638.791 820.5,637.5C 748.503,638.833 676.17,639.5 603.5,639.5C 530.999,639.5 458.666,639.167 386.5,638.5C 389.167,638.5 391.833,638.5 394.5,638.5C 531.839,638.805 669.173,638.471 806.5,637.5 Z"/></g>
<g><path style="opacity:1" fill="#83c63c" d="M 98.5,623.5 C 98.3339,629.176 98.5006,634.843 99,640.5C 99.7504,641.126 100.584,641.626 101.5,642C 116.163,642.5 130.83,642.667 145.5,642.5C 145.825,650.352 145.492,658.018 144.5,665.5C 144.5,663.167 144.5,660.833 144.5,658.5C 121.167,658.5 97.8333,658.5 74.5,658.5C 74.5,648.5 74.5,638.5 74.5,628.5C 81.0113,628.774 87.5113,628.774 94,628.5C 95.3261,628.755 96.3261,629.422 97,630.5C 97.1862,627.964 97.6862,625.631 98.5,623.5 Z"/></g>
<g><path style="opacity:1" fill="#84c640" d="M 229.5,618.5 C 235.136,634.235 240.469,650.235 245.5,666.5C 236.918,665.53 228.251,665.197 219.5,665.5C 218.883,665.389 218.383,665.056 218,664.5C 214.352,653.583 210.852,642.583 207.5,631.5C 215.63,632.105 223.796,632.438 232,632.5C 230.993,627.954 230.159,623.287 229.5,618.5 Z"/></g>
<g><path style="opacity:1" fill="#83c440" d="M 288.5,639.5 C 288.5,639.833 288.5,640.167 288.5,640.5C 285.08,650.618 281.414,660.618 277.5,670.5C 277.5,668.833 277.5,667.167 277.5,665.5C 270.167,665.5 262.833,665.5 255.5,665.5C 256.226,669.307 254.893,671.974 251.5,673.5C 251.5,672.833 251.5,672.167 251.5,671.5C 254.433,661.41 257.6,651.41 261,641.5C 261.383,640.944 261.883,640.611 262.5,640.5C 261.481,642.54 261.481,644.54 262.5,646.5C 269.663,645.275 276.83,645.275 284,646.5C 285.161,643.844 286.661,641.511 288.5,639.5 Z"/></g>
<g><path style="opacity:0.135" fill="#fefefd" d="M 349.5,646.5 C 348.064,649.737 346.231,652.737 344,655.5C 343.51,656.793 343.343,658.127 343.5,659.5C 342.596,660.209 342.263,661.209 342.5,662.5C 516.167,662.5 689.833,662.5 863.5,662.5C 863.737,661.209 863.404,660.209 862.5,659.5C 862.5,658.833 862.5,658.167 862.5,657.5C 862.443,656.391 862.11,655.391 861.5,654.5C 865.467,656.983 866.467,660.483 864.5,665C 863,665.167 861.5,665.333 860,665.5C 697.005,664.427 534.005,664.427 371,665.5C 361.5,665.167 352,664.833 342.5,664.5C 340.424,662.063 340.091,659.397 341.5,656.5C 343.267,653.963 344.767,651.297 346,648.5C 346.816,647.177 347.983,646.511 349.5,646.5 Z"/></g>
<g><path style="opacity:1" fill="#7abf39" d="M 74.5,658.5 C 97.8333,658.5 121.167,658.5 144.5,658.5C 144.5,660.833 144.5,663.167 144.5,665.5C 129.324,665.171 114.324,665.504 99.5,666.5C 99.1667,666.5 98.8333,666.5 98.5,666.5C 97.6909,668.292 97.1909,670.292 97,672.5C 89.5871,671.519 82.0871,671.186 74.5,671.5C 74.5,667.167 74.5,662.833 74.5,658.5 Z"/></g>
<g><path style="opacity:0.8" fill="#d4f1c7" d="M 343.5,659.5 C 429.664,660.833 516.164,661.5 603,661.5C 689.836,661.5 776.336,660.833 862.5,659.5C 863.404,660.209 863.737,661.209 863.5,662.5C 689.833,662.5 516.167,662.5 342.5,662.5C 342.263,661.209 342.596,660.209 343.5,659.5 Z"/></g>
<g><path style="opacity:1" fill="#a2d173" d="M 145.5,642.5 C 146.492,650.316 146.826,658.316 146.5,666.5C 130.833,666.5 115.167,666.5 99.5,666.5C 114.324,665.504 129.324,665.171 144.5,665.5C 145.492,658.018 145.825,650.352 145.5,642.5 Z"/></g>
<g><path style="opacity:1" fill="#76bb38" d="M 219.5,665.5 C 228.251,665.197 236.918,665.53 245.5,666.5C 245.5,667.167 245.5,667.833 245.5,668.5C 245.317,670.936 245.984,673.103 247.5,675C 249.066,675.3 250.399,674.8 251.5,673.5C 254.893,671.974 256.226,669.307 255.5,665.5C 262.833,665.5 270.167,665.5 277.5,665.5C 277.5,667.167 277.5,668.833 277.5,670.5C 276.167,675.167 274.833,679.833 273.5,684.5C 272.566,683.432 272.232,682.099 272.5,680.5C 256.5,680.5 240.5,680.5 224.5,680.5C 221.217,676.149 219.55,671.149 219.5,665.5 Z"/></g>
<g><path style="opacity:0.925" fill="#9dce72" d="M 245.5,668.5 C 246.675,669.974 247.675,671.64 248.5,673.5C 249.518,672.807 250.518,672.141 251.5,671.5C 251.5,672.167 251.5,672.833 251.5,673.5C 250.399,674.8 249.066,675.3 247.5,675C 245.984,673.103 245.317,670.936 245.5,668.5 Z"/></g>
<g><path style="opacity:1" fill="#69b133" d="M 224.5,680.5 C 240.5,680.5 256.5,680.5 272.5,680.5C 272.232,682.099 272.566,683.432 273.5,684.5C 269.405,694.187 265.738,704.021 262.5,714C 253.5,714.667 244.5,714.667 235.5,714C 231.139,703.051 227.472,691.885 224.5,680.5 Z"/></g>
<g><path style="opacity:1" fill="#69b231" d="M 98.5,666.5 C 97.8864,674.609 98.5531,682.442 100.5,690C 118.497,690.5 136.497,690.667 154.5,690.5C 154.664,693.187 154.497,695.854 154,698.5C 152.938,699.097 151.772,699.43 150.5,699.5C 125.107,699.37 99.7735,699.037 74.5,698.5C 74.5,689.5 74.5,680.5 74.5,671.5C 82.0871,671.186 89.5871,671.519 97,672.5C 97.1909,670.292 97.6909,668.292 98.5,666.5 Z"/></g>
<g><path style="opacity:1" fill="#60aa2e" d="M 154.5,690.5 C 155.492,698.316 155.826,706.316 155.5,714.5C 128.328,714.831 101.328,714.498 74.5,713.5C 74.5,708.5 74.5,703.5 74.5,698.5C 99.7735,699.037 125.107,699.37 150.5,699.5C 151.772,699.43 152.938,699.097 154,698.5C 154.497,695.854 154.664,693.187 154.5,690.5 Z"/></g>
<g><path style="opacity:0.961" fill="#a0cd7c" d="M 74.5,600.5 C 74.5,609.833 74.5,619.167 74.5,628.5C 74.5,638.5 74.5,648.5 74.5,658.5C 74.5,662.833 74.5,667.167 74.5,671.5C 74.5,680.5 74.5,689.5 74.5,698.5C 74.5,703.5 74.5,708.5 74.5,713.5C 72.9735,712.508 72.3068,711.008 72.5,709C 73.1445,672.678 73.8112,636.512 74.5,600.5 Z"/></g>
</svg>
